M48
INCH
T01C0.035
T02C0.0354
T03C0.0394
T04C0.0433
T05C0.065
T06C0.112
%
T01
X+048937Y+029937
X+049937Y+029937
X+055437Y+029937
X+056437Y+029937
X+061437Y+029937
X+062437Y+029937
X+067437Y+029937
X+068437Y+029937
X+073437Y+029937
X+074437Y+029937
X+079437Y+029937
X+080437Y+029937
X+084937Y+029937
X+085937Y+029937
X+091437Y+029937
X+092437Y+029937
X+097437Y+029937
X+098437Y+029937
X+097937Y+022937
X+096937Y+022937
X+091937Y+022937
X+090937Y+022937
X+085937Y+022937
X+084937Y+022937
X+079937Y+022937
X+078937Y+022937
X+073937Y+022937
X+072937Y+022937
X+067937Y+022937
X+066937Y+022937
X+061937Y+022937
X+060937Y+022937
X+055937Y+022937
X+054937Y+022937
X+049437Y+022937
X+048437Y+022937
X+043437Y+022937
X+042437Y+022937
X+037437Y+022937
X+036437Y+022937
X+031437Y+022937
X+030437Y+022937
X+025437Y+022937
X+024437Y+022937
X+019437Y+022937
X+018437Y+022937
X+013437Y+022937
X+012437Y+022937
X+007437Y+022937
X+006437Y+022937
X+006937Y+029937
X+007937Y+029937
X+012937Y+029937
X+013937Y+029937
X+018937Y+029937
X+019937Y+029937
X+024937Y+029937
X+025937Y+029937
X+030937Y+029937
X+031937Y+029937
X+036937Y+029937
X+037937Y+029937
X+042937Y+029937
X+043937Y+029937
T02
X+006437Y+027437
X+007437Y+027437
X+007437Y+026437
X+006437Y+026437
X+006437Y+025437
X+007437Y+025437
X+012437Y+024945
X+013437Y+024945
X+014437Y+024945
X+015437Y+024945
X+016437Y+024945
X+017437Y+024945
X+018437Y+024945
X+019437Y+024945
X+019437Y+027937
X+018437Y+027937
X+017437Y+027937
X+016437Y+027937
X+015437Y+027937
X+014437Y+027937
X+013437Y+027937
X+012437Y+027937
X+011937Y+036437
X+012937Y+036437
X+013937Y+036437
X+014937Y+036437
X+017937Y+036437
X+018937Y+036437
X+019937Y+036437
X+020937Y+036437
X+023937Y+036437
X+024937Y+036437
X+025937Y+036437
X+026937Y+036437
X+026937Y+039437
X+025937Y+039437
X+024937Y+039437
X+023937Y+039437
X+020937Y+039437
X+019937Y+039437
X+018937Y+039437
X+017937Y+039437
X+014937Y+039437
X+013937Y+039437
X+012937Y+039437
X+011937Y+039437
X+008937Y+039437
X+007937Y+039437
X+006937Y+039437
X+005937Y+039437
X+005937Y+036437
X+006937Y+036437
X+007937Y+036437
X+008937Y+036437
X+022937Y+027937
X+023937Y+027937
X+024937Y+027937
X+025937Y+027937
X+026937Y+027937
X+027937Y+027937
X+028937Y+027937
X+029937Y+027937
X+029937Y+024945
X+028937Y+024945
X+027937Y+024945
X+026937Y+024945
X+025937Y+024945
X+024937Y+024945
X+023937Y+024945
X+022937Y+024945
X+023437Y+016437
X+024437Y+016437
X+025437Y+016437
X+026437Y+016437
X+029437Y+016437
X+030437Y+016437
X+031437Y+016437
X+032437Y+016437
X+035437Y+016437
X+036437Y+016437
X+037437Y+016437
X+038437Y+016437
X+041437Y+016437
X+042437Y+016437
X+043437Y+016437
X+044437Y+016437
X+047437Y+016437
X+048437Y+016437
X+049437Y+016437
X+050437Y+016437
X+050437Y+013437
X+049437Y+013437
X+048437Y+013437
X+047437Y+013437
X+044437Y+013437
X+043437Y+013437
X+042437Y+013437
X+041437Y+013437
X+038437Y+013437
X+037437Y+013437
X+036437Y+013437
X+035437Y+013437
X+032437Y+013437
X+031437Y+013437
X+030437Y+013437
X+029437Y+013437
X+026437Y+013437
X+025437Y+013437
X+024437Y+013437
X+023437Y+013437
X+020437Y+013437
X+019437Y+013437
X+018437Y+013437
X+017437Y+013437
X+017437Y+016437
X+018437Y+016437
X+019437Y+016437
X+020437Y+016437
X+014437Y+016437
X+013437Y+016437
X+012437Y+016437
X+011437Y+016437
X+008437Y+016437
X+007437Y+016437
X+006437Y+016437
X+005437Y+016437
X+005437Y+013437
X+006437Y+013437
X+007437Y+013437
X+008437Y+013437
X+011437Y+013437
X+012437Y+013437
X+013437Y+013437
X+014437Y+013437
X+029937Y+036437
X+030937Y+036437
X+031937Y+036437
X+032937Y+036437
X+035937Y+036437
X+036937Y+036437
X+037937Y+036437
X+038937Y+036437
X+038937Y+039437
X+037937Y+039437
X+036937Y+039437
X+035937Y+039437
X+032937Y+039437
X+031937Y+039437
X+030937Y+039437
X+029937Y+039437
X+041937Y+039437
X+042937Y+039437
X+043937Y+039437
X+044937Y+039437
X+047937Y+039437
X+048937Y+039437
X+049937Y+039437
X+050937Y+039437
X+050937Y+036437
X+049937Y+036437
X+048937Y+036437
X+047937Y+036437
X+044937Y+036437
X+043937Y+036437
X+042937Y+036437
X+041937Y+036437
X+054437Y+036437
X+055437Y+036437
X+056437Y+036437
X+057437Y+036437
X+060437Y+036437
X+061437Y+036437
X+062437Y+036437
X+063437Y+036437
X+063437Y+039437
X+062437Y+039437
X+061437Y+039437
X+060437Y+039437
X+057437Y+039437
X+056437Y+039437
X+055437Y+039437
X+054437Y+039437
X+066437Y+039437
X+067437Y+039437
X+068437Y+039437
X+069437Y+039437
X+069437Y+036437
X+068437Y+036437
X+067437Y+036437
X+066437Y+036437
X+072437Y+036437
X+073437Y+036437
X+074437Y+036437
X+075437Y+036437
X+075437Y+039437
X+074437Y+039437
X+073437Y+039437
X+072437Y+039437
X+078437Y+039437
X+079437Y+039437
X+080437Y+039437
X+081437Y+039437
X+081437Y+036437
X+080437Y+036437
X+079437Y+036437
X+078437Y+036437
X+084437Y+036437
X+085437Y+036437
X+086437Y+036437
X+087437Y+036437
X+090437Y+036437
X+091437Y+036437
X+092437Y+036437
X+093437Y+036437
X+093437Y+039437
X+092437Y+039437
X+091437Y+039437
X+090437Y+039437
X+087437Y+039437
X+086437Y+039437
X+085437Y+039437
X+084437Y+039437
X+084437Y+027937
X+085437Y+027937
X+086437Y+027937
X+087437Y+027937
X+088437Y+027937
X+089437Y+027937
X+089437Y+024945
X+088437Y+024945
X+087437Y+024945
X+086437Y+024945
X+085437Y+024945
X+084437Y+024945
X+083437Y+024945
X+082437Y+024945
X+082437Y+027937
X+083437Y+027937
X+079437Y+027937
X+078437Y+027937
X+077437Y+027937
X+076437Y+027937
X+075437Y+027937
X+074437Y+027937
X+073437Y+027937
X+072437Y+027937
X+072437Y+024945
X+073437Y+024945
X+074437Y+024945
X+075437Y+024945
X+076437Y+024945
X+077437Y+024945
X+078437Y+024945
X+079437Y+024945
X+078937Y+016437
X+079937Y+016437
X+080937Y+016437
X+077937Y+016437
X+077937Y+013437
X+078937Y+013437
X+079937Y+013437
X+080937Y+013437
X+083937Y+013437
X+084937Y+013437
X+085937Y+013437
X+086937Y+013437
X+086937Y+016437
X+085937Y+016437
X+084937Y+016437
X+083937Y+016437
X+089937Y+016437
X+090937Y+016437
X+091937Y+016437
X+092937Y+016437
X+092937Y+013437
X+091937Y+013437
X+090937Y+013437
X+089937Y+013437
X+095937Y+013437
X+096937Y+013437
X+097937Y+013437
X+098937Y+013437
X+098937Y+016437
X+097937Y+016437
X+096937Y+016437
X+095937Y+016437
X+096437Y+036437
X+097437Y+036437
X+098437Y+036437
X+099437Y+036437
X+099437Y+039437
X+098437Y+039437
X+097437Y+039437
X+096437Y+039437
X+074937Y+016437
X+073937Y+016437
X+072937Y+016437
X+071937Y+016437
X+071937Y+013437
X+072937Y+013437
X+073937Y+013437
X+074937Y+013437
X+068937Y+013437
X+067937Y+013437
X+066937Y+013437
X+065937Y+013437
X+065937Y+016437
X+066937Y+016437
X+067937Y+016437
X+068937Y+016437
X+062937Y+016437
X+061937Y+016437
X+060937Y+016437
X+059937Y+016437
X+056937Y+016437
X+055937Y+016437
X+054937Y+016437
X+053937Y+016437
X+053937Y+013437
X+054937Y+013437
X+055937Y+013437
X+056937Y+013437
X+059937Y+013437
X+060937Y+013437
X+061937Y+013437
X+062937Y+013437
T03
X+005937Y+034437
X+007937Y+034437
X+007937Y+031937
X+005937Y+031937
X+011937Y+031937
X+013937Y+031937
X+013937Y+034437
X+011937Y+034437
X+017937Y+034437
X+019937Y+034437
X+019937Y+031937
X+017937Y+031937
X+023937Y+031937
X+025937Y+031937
X+025937Y+034437
X+023937Y+034437
X+029937Y+034437
X+031937Y+034437
X+031937Y+031937
X+029937Y+031937
X+035937Y+031937
X+037937Y+031937
X+037937Y+034437
X+035937Y+034437
X+041937Y+034437
X+043937Y+034437
X+043937Y+031937
X+041937Y+031937
X+047937Y+031937
X+049937Y+031937
X+049937Y+034437
X+047937Y+034437
X+054437Y+034437
X+056437Y+034437
X+056474Y+031900
X+054474Y+031900
X+060474Y+031900
X+062474Y+031900
X+062437Y+034437
X+060437Y+034437
X+066437Y+034437
X+068437Y+034437
X+068474Y+031900
X+066474Y+031900
X+072474Y+031900
X+074474Y+031900
X+074437Y+034437
X+072437Y+034437
X+078437Y+034437
X+080437Y+034437
X+080474Y+031900
X+078474Y+031900
X+084474Y+031900
X+086474Y+031900
X+086437Y+034437
X+084437Y+034437
X+090437Y+034437
X+092437Y+034437
X+092474Y+031900
X+090474Y+031900
X+096437Y+031937
X+098437Y+031937
X+098437Y+034437
X+096437Y+034437
X+096937Y+020937
X+098937Y+020937
X+098937Y+018437
X+096937Y+018437
X+092937Y+018437
X+090937Y+018437
X+090937Y+020937
X+092937Y+020937
X+086937Y+020937
X+084937Y+020937
X+084937Y+018437
X+086937Y+018437
X+080937Y+018437
X+078937Y+018437
X+078937Y+020937
X+080937Y+020937
X+074937Y+020937
X+072937Y+020937
X+072937Y+018437
X+074937Y+018437
X+068937Y+018437
X+066937Y+018437
X+066937Y+020937
X+068937Y+020937
X+062937Y+020937
X+060937Y+020937
X+060937Y+018437
X+062937Y+018437
X+056937Y+018437
X+054937Y+018437
X+054937Y+020937
X+056937Y+020937
X+050437Y+020937
X+048437Y+020937
X+048437Y+018437
X+050437Y+018437
X+044437Y+018437
X+042437Y+018437
X+042437Y+020937
X+044437Y+020937
X+038437Y+020937
X+036437Y+020937
X+036437Y+018437
X+038437Y+018437
X+032437Y+018437
X+030437Y+018437
X+030437Y+020937
X+032437Y+020937
X+026437Y+020937
X+024437Y+020937
X+024437Y+018437
X+026437Y+018437
X+020437Y+018437
X+018437Y+018437
X+018437Y+020937
X+020437Y+020937
X+014437Y+020937
X+012437Y+020937
X+012437Y+018437
X+014437Y+018437
X+008437Y+018437
X+006437Y+018437
X+006437Y+020937
X+008437Y+020937
T04
X+055437Y+041937
X+056437Y+041937
X+057437Y+041937
X+061437Y+041937
X+062437Y+041937
X+063437Y+041937
X+067437Y+041937
X+068437Y+041937
X+069437Y+041937
X+073437Y+041937
X+074437Y+041937
X+075437Y+041937
X+079437Y+041937
X+080437Y+041937
X+081437Y+041937
X+085437Y+041937
X+086437Y+041937
X+087437Y+041937
X+091437Y+041937
X+092437Y+041937
X+093437Y+041937
X+097437Y+041937
X+098437Y+041937
X+099437Y+041937
X+097937Y+010937
X+096937Y+010937
X+095937Y+010937
X+091937Y+010937
X+090937Y+010937
X+089937Y+010937
X+085937Y+010937
X+084937Y+010937
X+083937Y+010937
X+079937Y+010937
X+078937Y+010937
X+077937Y+010937
X+073937Y+010937
X+072937Y+010937
X+071937Y+010937
X+067937Y+010937
X+066937Y+010937
X+065937Y+010937
X+061937Y+010937
X+060937Y+010937
X+059937Y+010937
X+055937Y+010937
X+054937Y+010937
X+053937Y+010937
X+049437Y+010937
X+048437Y+010937
X+047437Y+010937
X+043437Y+010937
X+042437Y+010937
X+041437Y+010937
X+036937Y+010937
X+035937Y+010937
X+034937Y+010937
X+031437Y+010937
X+030437Y+010937
X+029437Y+010937
X+025437Y+010937
X+024437Y+010937
X+023437Y+010937
X+019437Y+010937
X+018437Y+010937
X+017437Y+010937
X+013437Y+010937
X+012437Y+010937
X+011437Y+010937
X+007437Y+010937
X+006437Y+010937
X+005437Y+010937
X+006937Y+041937
X+007937Y+041937
X+008937Y+041937
X+012937Y+041937
X+013937Y+041937
X+014937Y+041937
X+018937Y+041937
X+019937Y+041937
X+020937Y+041937
X+024937Y+041937
X+025937Y+041937
X+026937Y+041937
X+030937Y+041937
X+031937Y+041937
X+032937Y+041937
X+036937Y+041937
X+037937Y+041937
X+038937Y+041937
X+042937Y+041937
X+043937Y+041937
X+044937Y+041937
X+048937Y+041937
X+049937Y+041937
X+050937Y+041937
T05
X+023437Y+046437
X+024997Y+046437
X+026557Y+046437
X+028117Y+046437
X+029677Y+046437
X+031237Y+046437
X+032797Y+046437
X+034357Y+046437
X+071937Y+046437
X+073497Y+046437
X+075057Y+046437
X+076617Y+046437
X+078177Y+046437
X+079737Y+046437
X+081297Y+046437
X+082857Y+046437
X+098437Y+027437
X+098437Y+025877
X+081437Y+006437
X+079877Y+006437
X+078317Y+006437
X+076757Y+006437
X+075197Y+006437
X+073637Y+006437
X+072077Y+006437
X+070517Y+006437
X+032937Y+006437
X+031377Y+006437
X+029817Y+006437
X+028257Y+006437
X+026697Y+006437
X+025137Y+006437
X+023577Y+006437
X+022017Y+006437
T06
X+005437Y+047437
X+005437Y+005437
X+099437Y+005437
X+099437Y+047437
T00
M30
