G04 DipTrace 2.3.1.0*
%INBottomSilk.gbr*%
%MOIN*%
%ADD45C,0.0154*%
%FSLAX44Y44*%
G04*
G70*
G90*
G75*
G01*
%LNBotSilk*%
%LPD*%
X68432Y26547D2*
D45*
X68527Y26643D1*
X68671Y26690D1*
X68862D1*
X69005Y26643D1*
X69102Y26547D1*
Y26452D1*
X69053Y26356D1*
X69005Y26308D1*
X68910Y26260D1*
X68623Y26164D1*
X68527Y26117D1*
X68479Y26068D1*
X68432Y25973D1*
Y25829D1*
X68527Y25734D1*
X68671Y25686D1*
X68862D1*
X69005Y25734D1*
X69102Y25829D1*
X68074Y26356D2*
X67788Y25686D1*
X67883Y25494D1*
X67979Y25398D1*
X68074Y25351D1*
X68123D1*
X67501Y26356D2*
X67788Y25686D1*
X66666Y26212D2*
X66713Y26308D1*
X66857Y26356D1*
X67001D1*
X67144Y26308D1*
X67192Y26212D1*
X67144Y26117D1*
X67048Y26068D1*
X66809Y26021D1*
X66713Y25973D1*
X66666Y25877D1*
Y25829D1*
X66713Y25734D1*
X66857Y25686D1*
X67001D1*
X67144Y25734D1*
X67192Y25829D1*
X66213Y26690D2*
Y25877D1*
X66166Y25734D1*
X66070Y25686D1*
X65974D1*
X66357Y26356D2*
X66022D1*
X65666Y26068D2*
X65092D1*
Y26164D1*
X65140Y26260D1*
X65187Y26308D1*
X65283Y26356D1*
X65427D1*
X65522Y26308D1*
X65618Y26212D1*
X65666Y26068D1*
Y25973D1*
X65618Y25829D1*
X65522Y25734D1*
X65427Y25686D1*
X65283D1*
X65187Y25734D1*
X65092Y25829D1*
X64783Y26356D2*
Y25686D1*
Y26164D2*
X64640Y26308D1*
X64543Y26356D1*
X64401D1*
X64305Y26308D1*
X64257Y26164D1*
Y25686D1*
Y26164D2*
X64113Y26308D1*
X64017Y26356D1*
X63875D1*
X63778Y26308D1*
X63730Y26164D1*
Y25686D1*
X61779Y26547D2*
X61874Y26643D1*
X62018Y26690D1*
X62209D1*
X62353Y26643D1*
X62449Y26547D1*
Y26452D1*
X62400Y26356D1*
X62353Y26308D1*
X62258Y26260D1*
X61970Y26164D1*
X61874Y26117D1*
X61827Y26068D1*
X61779Y25973D1*
Y25829D1*
X61874Y25734D1*
X62018Y25686D1*
X62209D1*
X62353Y25734D1*
X62449Y25829D1*
X61470Y26690D2*
Y25686D1*
Y26164D2*
X61327Y26308D1*
X61230Y26356D1*
X61087D1*
X60992Y26308D1*
X60944Y26164D1*
Y25686D1*
X60397Y26356D2*
X60492Y26308D1*
X60588Y26212D1*
X60635Y26068D1*
Y25973D1*
X60588Y25829D1*
X60492Y25734D1*
X60397Y25686D1*
X60253D1*
X60157Y25734D1*
X60062Y25829D1*
X60013Y25973D1*
Y26068D1*
X60062Y26212D1*
X60157Y26308D1*
X60253Y26356D1*
X60397D1*
X59129Y26212D2*
X59226Y26308D1*
X59322Y26356D1*
X59464D1*
X59561Y26308D1*
X59656Y26212D1*
X59704Y26068D1*
Y25973D1*
X59656Y25829D1*
X59561Y25734D1*
X59464Y25686D1*
X59322D1*
X59226Y25734D1*
X59129Y25829D1*
X58821Y26690D2*
Y25686D1*
X58342Y26356D2*
X58821Y25877D1*
X58629Y26068D2*
X58294Y25686D1*
X57014Y26188D2*
X56461D1*
X54893Y26690D2*
X54989Y26643D1*
X55084Y26547D1*
X55133Y26452D1*
X55180Y26308D1*
Y26068D1*
X55133Y25926D1*
X55084Y25829D1*
X54989Y25734D1*
X54893Y25686D1*
X54702D1*
X54606Y25734D1*
X54510Y25829D1*
X54463Y25926D1*
X54415Y26068D1*
Y26308D1*
X54463Y26452D1*
X54510Y26547D1*
X54606Y26643D1*
X54702Y26690D1*
X54893D1*
X54106Y26356D2*
Y25351D1*
Y26212D2*
X54010Y26307D1*
X53915Y26356D1*
X53772D1*
X53675Y26307D1*
X53580Y26212D1*
X53532Y26068D1*
Y25972D1*
X53580Y25829D1*
X53675Y25733D1*
X53772Y25686D1*
X53915D1*
X54010Y25733D1*
X54106Y25829D1*
X53223Y26068D2*
X52649D1*
Y26164D1*
X52697Y26260D1*
X52744Y26308D1*
X52840Y26356D1*
X52984D1*
X53079Y26308D1*
X53175Y26212D1*
X53223Y26068D1*
Y25973D1*
X53175Y25829D1*
X53079Y25734D1*
X52984Y25686D1*
X52840D1*
X52744Y25734D1*
X52649Y25829D1*
X52340Y26356D2*
Y25686D1*
Y26164D2*
X52197Y26308D1*
X52101Y26356D1*
X51958D1*
X51862Y26308D1*
X51814Y26164D1*
Y25686D1*
X50533Y26690D2*
Y25686D1*
X49864Y26690D2*
Y25686D1*
X50533Y26212D2*
X49864D1*
X48981Y26356D2*
Y25686D1*
Y26212D2*
X49076Y26308D1*
X49172Y26356D1*
X49315D1*
X49411Y26308D1*
X49506Y26212D1*
X49555Y26068D1*
Y25973D1*
X49506Y25829D1*
X49411Y25734D1*
X49315Y25686D1*
X49172D1*
X49076Y25734D1*
X48981Y25829D1*
X48672Y26356D2*
Y25686D1*
Y26068D2*
X48624Y26212D1*
X48529Y26308D1*
X48432Y26356D1*
X48289D1*
X47406Y26690D2*
Y25686D1*
Y26212D2*
X47501Y26308D1*
X47597Y26356D1*
X47741D1*
X47836Y26308D1*
X47932Y26212D1*
X47980Y26068D1*
Y25973D1*
X47932Y25829D1*
X47836Y25734D1*
X47741Y25686D1*
X47597D1*
X47501Y25734D1*
X47406Y25829D1*
X47097Y26356D2*
X46906Y25686D1*
X46715Y26356D1*
X46524Y25686D1*
X46333Y26356D1*
X45450D2*
Y25686D1*
Y26212D2*
X45545Y26308D1*
X45641Y26356D1*
X45784D1*
X45880Y26308D1*
X45975Y26212D1*
X46024Y26068D1*
Y25973D1*
X45975Y25829D1*
X45880Y25734D1*
X45784Y25686D1*
X45641D1*
X45545Y25734D1*
X45450Y25829D1*
X45141Y26356D2*
Y25686D1*
Y26068D2*
X45093Y26212D1*
X44998Y26308D1*
X44901Y26356D1*
X44758D1*
X44449Y26068D2*
X43875D1*
Y26164D1*
X43923Y26260D1*
X43970Y26308D1*
X44066Y26356D1*
X44210D1*
X44305Y26308D1*
X44401Y26212D1*
X44449Y26068D1*
Y25973D1*
X44401Y25829D1*
X44305Y25734D1*
X44210Y25686D1*
X44066D1*
X43970Y25734D1*
X43875Y25829D1*
X42594Y26188D2*
X42042D1*
X40712Y26451D2*
Y26498D1*
X40665Y26594D1*
X40617Y26642D1*
X40521Y26689D1*
X40330D1*
X40235Y26642D1*
X40187Y26594D1*
X40139Y26498D1*
Y26403D1*
X40187Y26307D1*
X40282Y26164D1*
X40761Y25686D1*
X40091D1*
X39495Y26689D2*
X39639Y26642D1*
X39735Y26498D1*
X39782Y26259D1*
Y26116D1*
X39735Y25877D1*
X39639Y25733D1*
X39495Y25686D1*
X39400D1*
X39256Y25733D1*
X39161Y25877D1*
X39112Y26116D1*
Y26259D1*
X39161Y26498D1*
X39256Y26642D1*
X39400Y26689D1*
X39495D1*
X39161Y26498D2*
X39735Y25877D1*
X38804Y26498D2*
X38707Y26547D1*
X38564Y26689D1*
Y25686D1*
X37776D2*
Y26689D1*
X38255Y26021D1*
X37538D1*
X36941Y26689D2*
X37085Y26642D1*
X37181Y26498D1*
X37229Y26259D1*
Y26116D1*
X37181Y25877D1*
X37085Y25733D1*
X36941Y25686D1*
X36846D1*
X36703Y25733D1*
X36608Y25877D1*
X36559Y26116D1*
Y26259D1*
X36608Y26498D1*
X36703Y26642D1*
X36846Y26689D1*
X36941D1*
X36608Y26498D2*
X37181Y25877D1*
X35676Y26547D2*
X35724Y26642D1*
X35868Y26689D1*
X35963D1*
X36106Y26642D1*
X36203Y26498D1*
X36250Y26259D1*
Y26021D1*
X36203Y25829D1*
X36106Y25733D1*
X35963Y25686D1*
X35915D1*
X35773Y25733D1*
X35676Y25829D1*
X35629Y25973D1*
Y26021D1*
X35676Y26164D1*
X35773Y26259D1*
X35915Y26307D1*
X35963D1*
X36106Y26259D1*
X36203Y26164D1*
X36250Y26021D1*
X35033Y26689D2*
X35176Y26642D1*
X35273Y26498D1*
X35320Y26259D1*
Y26116D1*
X35273Y25877D1*
X35176Y25733D1*
X35033Y25686D1*
X34938D1*
X34794Y25733D1*
X34699Y25877D1*
X34650Y26116D1*
Y26259D1*
X34699Y26498D1*
X34794Y26642D1*
X34938Y26689D1*
X35033D1*
X34699Y26498D2*
X35273Y25877D1*
X33768Y26689D2*
X34245D1*
X34293Y26259D1*
X34245Y26307D1*
X34102Y26356D1*
X33959D1*
X33815Y26307D1*
X33719Y26212D1*
X33672Y26068D1*
Y25973D1*
X33719Y25829D1*
X33815Y25733D1*
X33959Y25686D1*
X34102D1*
X34245Y25733D1*
X34293Y25782D1*
X34341Y25877D1*
M02*
